<?xml version="1.0" standalone="no"?>
<!DOCTYPE svg PUBLIC "-//W3C//DTD SVG 20010904//EN"
 "http://www.w3.org/TR/2001/REC-SVG-20010904/DTD/svg10.dtd">
<svg version="1.0" xmlns="http://www.w3.org/2000/svg"
 width="200.000000pt" height="240.000000pt" viewBox="0 0 200.000000 240.000000"
 preserveAspectRatio="xMidYMid meet">

<g transform="translate(0.000000,240.000000) scale(0.100000,-0.100000)"
fill="#000000" stroke="none">
<path d="M1014 1884 l7 -120 -176 -78 c-96 -43 -175 -82 -175 -86 0 -4 6 -13
14 -19 12 -10 48 3 181 63 107 48 167 71 170 63 2 -7 10 -34 19 -61 9 -27 16
-50 16 -51 0 0 -68 -34 -150 -75 -83 -41 -149 -79 -147 -84 11 -34 37 -28 170
42 74 40 137 72 139 72 3 0 22 -25 42 -55 43 -62 107 -109 180 -130 58 -17
123 -20 128 -4 2 5 23 15 48 20 40 9 46 8 62 -13 22 -29 23 -47 1 -55 -10 -4
-30 -15 -45 -26 -15 -11 -33 -17 -41 -14 -7 3 -51 -6 -98 -20 -158 -46 -323
-30 -442 43 -27 17 43 -59 188 -205 l230 -231 167 0 168 0 40 36 c51 46 60 80
60 232 l0 123 -47 48 c-27 26 -198 196 -382 377 l-334 329 7 -121z"/>
<path d="M490 300 l0 -290 50 0 50 0 0 290 0 290 -50 0 -50 0 0 -290z"/>
<path d="M1620 300 l0 -290 50 0 50 0 0 46 c0 41 24 104 41 104 3 0 30 -34 59
-75 l53 -75 59 0 c45 0 57 3 52 12 -4 7 -41 57 -82 111 l-74 99 36 51 c20 29
52 73 72 100 l36 47 -59 0 -58 0 -67 -103 -68 -102 0 183 0 182 -50 0 -50 0 0
-290z"/>
<path d="M64 553 c-12 -2 -30 -13 -40 -25 -17 -18 -19 -43 -22 -269 l-3 -249
56 0 55 0 0 110 0 110 94 0 c103 0 106 2 106 73 l0 27 -100 0 -100 0 0 53 c0
29 5 58 12 65 8 8 50 12 125 12 l113 0 0 50 0 50 -137 -1 c-76 -1 -148 -4
-159 -6z"/>
<path d="M1280 449 c-65 -12 -110 -62 -110 -124 0 -58 21 -99 57 -114 22 -8
122 -31 139 -31 2 0 11 -11 20 -25 15 -23 15 -27 0 -50 -29 -45 -136 -29 -136
21 0 10 -13 14 -45 14 -43 0 -45 -1 -45 -29 0 -84 124 -135 242 -99 60 18 88
58 88 125 0 49 -4 59 -33 88 -27 27 -45 35 -105 45 -61 10 -75 16 -84 36 -9
19 -8 28 7 44 34 38 125 17 125 -28 0 -8 17 -12 46 -12 l46 0 -7 33 c-18 86
-94 126 -205 106z"/>
<path d="M805 443 c-92 -20 -114 -61 -115 -209 0 -147 25 -203 101 -225 34
-11 42 -9 94 21 31 18 58 31 59 29 2 -2 9 -14 15 -27 9 -16 21 -22 46 -22 l35
0 0 220 0 220 -107 -1 c-60 -1 -117 -3 -128 -6z m135 -188 l0 -105 -32 -20
c-77 -47 -118 -15 -118 92 0 112 19 136 108 137 l42 1 0 -105z"/>
</g>
</svg>
